# xmcd
#
# Track frame offsets:
#	150
#	18077
#	34731
#	51204
#	68157
#	89617
#	107544
#	121647
#	137550
#	151504
#	164331
#	184735
#	200039
#	215645
#	230872
#	250225
#	266499
#	282684
#	298962
#	312698
#	329201
#
# Disc length: 4669 seconds
#
# Revision: 2
# Processed by: cddbd v1.5.2PL0 Copyright (c) Steve Scherf et al.
# Submitted via: audiograbber 1.83.01
#
DISCID=47123b15
DTITLE=Various Artist - Promo Only Country Radio 2010 - 11
DYEAR=2010
DGENRE=Country
TTITLE0=Tim McGraw - Felt Good on My Lips
TTITLE1=Toby Keith - Bullets in the Gun
TTITLE2=Keith Urban - Put You in A Song
TTITLE3=Zac Brown Band feat. Alan Jackson - As She's Walking Away
TTITLE4=Jason Aldean - My Kinda Party
TTITLE5=Carrie Underwood - Mama's Song
TTITLE6=Blake Shelton - Who Are You When I'm Not Looking
TTITLE7=Walker Hayes - Pants
TTITLE8=Josh Kelley - Georgia Clay
TTITLE9=Craig Morgan - Still A Little Chicken Left On That Bone (Album)
TTITLE10=Lady Antebellum - Hello World
TTITLE11=Jewel - Ten
TTITLE12=LoCash Cowboys - Keep in Mind
TTITLE13=Due West - The Bible and the Belt
TTITLE14=Sara Evans - A Little Bit Stronger
TTITLE15=Marty Stuart - Little Heartbreaker (The Likes Of You)
TTITLE16=Ashley Gearing - What You Think About Us
TTITLE17=Jason Sturgeon - Rollin' on
TTITLE18=Jaron and the Long Road to Love - That's Beautiful to Me
TTITLE19=Margaret Durante - Mississippi's Crying
TTITLE20=William Riley - Life in the Fast Lane
EXTD=
EXTT0=
EXTT1=
EXTT2=
EXTT3=
EXTT4=
EXTT5=
EXTT6=
EXTT7=
EXTT8=
EXTT9=
EXTT10=
EXTT11=
EXTT12=
EXTT13=
EXTT14=
EXTT15=
EXTT16=
EXTT17=
EXTT18=
EXTT19=
EXTT20=
PLAYORDER=
